<?xml version="1.0" encoding="utf-8"?>
<!-- Generator: Adobe Illustrator 14.0.0, SVG Export Plug-In  -->
<!DOCTYPE svg PUBLIC "-//W3C//DTD SVG 1.1//EN" "http://www.w3.org/Graphics/SVG/1.1/DTD/svg11.dtd" [
	<!ENTITY ns_flows "http://ns.adobe.com/Flows/1.0/">
]>
<svg version="1.1"
	 xmlns="http://www.w3.org/2000/svg" xmlns:xlink="http://www.w3.org/1999/xlink" xmlns:a="http://ns.adobe.com/AdobeSVGViewerExtensions/3.0/"
	 x="0px" y="0px" width="300px" height="225px" viewBox="0 1 800 600" enable-background="new 0 1 800 600" xml:space="preserve">
<defs>
</defs>
<g>
	<rect x="4" y="5" fill="#39B54A" width="792" height="592"/>
	<path fill="#FFFFFF" d="M792,9v584H8V9H792 M800,1H0v600h800V1L800,1z"/>
</g>
<g>
	<rect x="220.667" y="5" fill="#39B54A" width="92" height="392"/>
	<path fill="#FFFFFF" d="M308.667,9v384h-84V9H308.667 M316.667,1h-100v400h100V1L316.667,1z"/>
</g>
<g>
	<rect x="487.333" y="205" fill="#39B54A" width="92" height="392"/>
	<path fill="#FFFFFF" d="M575.333,209v384h-84V209H575.333 M583.333,201h-100v400h100V201L583.333,201z"/>
</g>
<g>
	<path fill="#FFFFFF" d="M216.228,401.292v190.071H8.637V401.292H216.228 M224.865,392.655H0V600h224.865V392.655L224.865,392.655z"
		/>
</g>
<g>
	<path fill="#FFFFFF" d="M791.318,8.682v192.119H583.817V8.682H791.318 M800,0H575.136v209.482H800V0L800,0z"/>
</g>
<line fill="none" stroke="#FFFFFF" stroke-width="6" stroke-linecap="round" stroke-linejoin="round" x1="497.969" y1="595.967" x2="579.548" y2="514.388"/>
<line fill="none" stroke="#FFFFFF" stroke-width="6" stroke-linecap="round" stroke-linejoin="round" x1="486.936" y1="542.606" x2="579.548" y2="449.994"/>
<line fill="none" stroke="#FFFFFF" stroke-width="6" stroke-linecap="round" stroke-linejoin="round" x1="486.936" y1="478.213" x2="579.548" y2="385.601"/>
<line fill="none" stroke="#FFFFFF" stroke-width="6" stroke-linecap="round" stroke-linejoin="round" x1="486.936" y1="413.819" x2="579.548" y2="321.207"/>
<line fill="none" stroke="#FFFFFF" stroke-width="6" stroke-linecap="round" stroke-linejoin="round" x1="486.936" y1="349.426" x2="579.548" y2="256.813"/>
<line fill="none" stroke="#FFFFFF" stroke-width="6" stroke-linecap="round" stroke-linejoin="round" x1="486.936" y1="285.032" x2="566.52" y2="205.448"/>
<line fill="none" stroke="#FFFFFF" stroke-width="6" stroke-linecap="round" stroke-linejoin="round" x1="239.021" y1="395.159" x2="312.973" y2="321.207"/>
<line fill="none" stroke="#FFFFFF" stroke-width="6" stroke-linecap="round" stroke-linejoin="round" x1="220.36" y1="349.426" x2="312.973" y2="256.813"/>
<line fill="none" stroke="#FFFFFF" stroke-width="6" stroke-linecap="round" stroke-linejoin="round" x1="220.36" y1="285.032" x2="312.973" y2="192.42"/>
<line fill="none" stroke="#FFFFFF" stroke-width="6" stroke-linecap="round" stroke-linejoin="round" x1="220.36" y1="220.639" x2="312.973" y2="128.026"/>
<line fill="none" stroke="#FFFFFF" stroke-width="6" stroke-linecap="round" stroke-linejoin="round" x1="220.36" y1="156.245" x2="312.973" y2="63.633"/>
<line fill="none" stroke="#FFFFFF" stroke-width="6" stroke-linecap="round" stroke-linejoin="round" x1="220.36" y1="91.852" x2="304.78" y2="7.432"/>
<rect x="414.164" y="72.183" transform="matrix(0.866 0.5 -0.5 0.866 100.8098 -214.1546)" fill="#666666" stroke="#4D4D4D" stroke-width="3" stroke-linecap="round" stroke-linejoin="round" width="71.719" height="17.708"/>
<line fill="none" stroke="#4D4D4D" stroke-width="3" stroke-linecap="round" stroke-linejoin="round" x1="427.864" y1="58.021" x2="419.011" y2="73.355"/>
<line fill="none" stroke="#4D4D4D" stroke-width="3" stroke-linecap="round" stroke-linejoin="round" x1="435.622" y1="62.499" x2="426.768" y2="77.834"/>
<line fill="none" stroke="#4D4D4D" stroke-width="3" stroke-linecap="round" stroke-linejoin="round" x1="443.379" y1="66.978" x2="434.525" y2="82.312"/>
<line fill="none" stroke="#4D4D4D" stroke-width="3" stroke-linecap="round" stroke-linejoin="round" x1="451.136" y1="71.456" x2="442.282" y2="86.791"/>
<line fill="none" stroke="#4D4D4D" stroke-width="3" stroke-linecap="round" stroke-linejoin="round" x1="458.893" y1="75.935" x2="450.039" y2="91.27"/>
<line fill="none" stroke="#4D4D4D" stroke-width="3" stroke-linecap="round" stroke-linejoin="round" x1="466.649" y1="80.413" x2="457.796" y2="95.748"/>
<line fill="none" stroke="#4D4D4D" stroke-width="3" stroke-linecap="round" stroke-linejoin="round" x1="474.407" y1="84.892" x2="465.553" y2="100.227"/>
<line fill="none" stroke="#4D4D4D" stroke-width="3" stroke-linecap="round" stroke-linejoin="round" x1="482.164" y1="89.37" x2="473.311" y2="104.705"/>
<rect x="388.902" y="115.938" transform="matrix(0.866 0.5 -0.5 0.866 119.303 -195.6616)" fill="#666666" stroke="#4D4D4D" stroke-width="3" stroke-linecap="round" stroke-linejoin="round" width="71.719" height="17.708"/>
<line fill="none" stroke="#4D4D4D" stroke-width="3" stroke-linecap="round" stroke-linejoin="round" x1="401.736" y1="101.274" x2="392.883" y2="116.61"/>
<line fill="none" stroke="#4D4D4D" stroke-width="3" stroke-linecap="round" stroke-linejoin="round" x1="409.494" y1="105.753" x2="400.64" y2="121.089"/>
<line fill="none" stroke="#4D4D4D" stroke-width="3" stroke-linecap="round" stroke-linejoin="round" x1="417.251" y1="110.231" x2="408.397" y2="125.567"/>
<line fill="none" stroke="#4D4D4D" stroke-width="3" stroke-linecap="round" stroke-linejoin="round" x1="425.008" y1="114.71" x2="416.154" y2="130.046"/>
<line fill="none" stroke="#4D4D4D" stroke-width="3" stroke-linecap="round" stroke-linejoin="round" x1="432.765" y1="119.188" x2="423.911" y2="134.524"/>
<line fill="none" stroke="#4D4D4D" stroke-width="3" stroke-linecap="round" stroke-linejoin="round" x1="440.521" y1="123.667" x2="431.668" y2="139.003"/>
<line fill="none" stroke="#4D4D4D" stroke-width="3" stroke-linecap="round" stroke-linejoin="round" x1="448.279" y1="128.146" x2="439.425" y2="143.481"/>
<line fill="none" stroke="#4D4D4D" stroke-width="3" stroke-linecap="round" stroke-linejoin="round" x1="456.035" y1="132.624" x2="447.182" y2="147.96"/>
<rect x="397.732" y="79.168" transform="matrix(0.866 0.5 -0.5 0.866 108.2706 -202.9427)" fill="#ED1C24" stroke="#800000" stroke-width="3" stroke-linecap="round" stroke-linejoin="round" width="70.193" height="42.788"/>
<rect x="416.833" y="97.795" transform="matrix(0.866 0.5 -0.5 0.866 112.2976 -207.6492)" fill="#ED1C24" stroke="#800000" stroke-width="3" stroke-linecap="round" stroke-linejoin="round" width="53.59" height="15.861"/>
<rect x="528.585" y="491.311" transform="matrix(-0.9397 -0.342 0.342 -0.9397 923.785 1163.2145)" fill="#666666" stroke="#4D4D4D" stroke-width="3" stroke-linecap="round" stroke-linejoin="round" width="71.72" height="17.707"/>
<line fill="none" stroke="#4D4D4D" stroke-width="3" stroke-linecap="round" stroke-linejoin="round" x1="590.264" y1="518.983" x2="596.319" y2="502.344"/>
<line fill="none" stroke="#4D4D4D" stroke-width="3" stroke-linecap="round" stroke-linejoin="round" x1="581.847" y1="515.92" x2="587.902" y2="499.28"/>
<line fill="none" stroke="#4D4D4D" stroke-width="3" stroke-linecap="round" stroke-linejoin="round" x1="573.43" y1="512.856" x2="579.486" y2="496.217"/>
<line fill="none" stroke="#4D4D4D" stroke-width="3" stroke-linecap="round" stroke-linejoin="round" x1="565.013" y1="509.793" x2="571.068" y2="493.153"/>
<line fill="none" stroke="#4D4D4D" stroke-width="3" stroke-linecap="round" stroke-linejoin="round" x1="556.596" y1="506.729" x2="562.652" y2="490.09"/>
<line fill="none" stroke="#4D4D4D" stroke-width="3" stroke-linecap="round" stroke-linejoin="round" x1="548.18" y1="503.666" x2="554.235" y2="487.026"/>
<line fill="none" stroke="#4D4D4D" stroke-width="3" stroke-linecap="round" stroke-linejoin="round" x1="539.762" y1="500.602" x2="545.818" y2="483.963"/>
<line fill="none" stroke="#4D4D4D" stroke-width="3" stroke-linecap="round" stroke-linejoin="round" x1="531.346" y1="497.539" x2="537.401" y2="480.899"/>
<rect x="545.866" y="443.833" transform="matrix(-0.9397 -0.342 0.342 -0.9397 973.5395 1077.0356)" fill="#666666" stroke="#4D4D4D" stroke-width="3" stroke-linecap="round" stroke-linejoin="round" width="71.719" height="17.708"/>
<line fill="none" stroke="#4D4D4D" stroke-width="3" stroke-linecap="round" stroke-linejoin="round" x1="608.483" y1="471.849" x2="614.54" y2="455.209"/>
<line fill="none" stroke="#4D4D4D" stroke-width="3" stroke-linecap="round" stroke-linejoin="round" x1="600.066" y1="468.785" x2="606.123" y2="452.145"/>
<line fill="none" stroke="#4D4D4D" stroke-width="3" stroke-linecap="round" stroke-linejoin="round" x1="591.649" y1="465.722" x2="597.706" y2="449.082"/>
<line fill="none" stroke="#4D4D4D" stroke-width="3" stroke-linecap="round" stroke-linejoin="round" x1="583.232" y1="462.658" x2="589.289" y2="446.018"/>
<line fill="none" stroke="#4D4D4D" stroke-width="3" stroke-linecap="round" stroke-linejoin="round" x1="574.815" y1="459.595" x2="580.872" y2="442.954"/>
<line fill="none" stroke="#4D4D4D" stroke-width="3" stroke-linecap="round" stroke-linejoin="round" x1="566.398" y1="456.531" x2="572.455" y2="439.891"/>
<line fill="none" stroke="#4D4D4D" stroke-width="3" stroke-linecap="round" stroke-linejoin="round" x1="557.982" y1="453.468" x2="564.039" y2="436.827"/>
<line fill="none" stroke="#4D4D4D" stroke-width="3" stroke-linecap="round" stroke-linejoin="round" x1="549.565" y1="450.404" x2="555.622" y2="433.764"/>
<rect x="542.891" y="456.554" transform="matrix(-0.9397 -0.342 0.342 -0.9397 957.6561 1124.7539)" fill="#FBB03B" stroke="#F7931E" stroke-width="3" stroke-linecap="round" stroke-linejoin="round" width="70.193" height="42.789"/>
<rect x="539.661" y="466.809" transform="matrix(-0.9397 -0.342 0.342 -0.9397 936.3885 1114.583)" fill="#FBB03B" stroke="#F7931E" stroke-width="3" stroke-linecap="round" stroke-linejoin="round" width="53.59" height="15.862"/>
<rect x="342.973" y="341.724" transform="matrix(0.342 -0.9397 0.9397 0.342 -80.1712 586.6589)" fill="#666666" stroke="#4D4D4D" stroke-width="3" stroke-linecap="round" stroke-linejoin="round" width="71.719" height="17.708"/>
<line fill="none" stroke="#4D4D4D" stroke-width="3" stroke-linecap="round" stroke-linejoin="round" x1="360.013" y1="376.396" x2="376.653" y2="382.453"/>
<line fill="none" stroke="#4D4D4D" stroke-width="3" stroke-linecap="round" stroke-linejoin="round" x1="363.077" y1="367.979" x2="379.717" y2="374.036"/>
<line fill="none" stroke="#4D4D4D" stroke-width="3" stroke-linecap="round" stroke-linejoin="round" x1="366.14" y1="359.562" x2="382.78" y2="365.619"/>
<line fill="none" stroke="#4D4D4D" stroke-width="3" stroke-linecap="round" stroke-linejoin="round" x1="369.204" y1="351.146" x2="385.844" y2="357.203"/>
<line fill="none" stroke="#4D4D4D" stroke-width="3" stroke-linecap="round" stroke-linejoin="round" x1="372.267" y1="342.729" x2="388.907" y2="348.785"/>
<line fill="none" stroke="#4D4D4D" stroke-width="3" stroke-linecap="round" stroke-linejoin="round" x1="375.331" y1="334.312" x2="391.971" y2="340.369"/>
<line fill="none" stroke="#4D4D4D" stroke-width="3" stroke-linecap="round" stroke-linejoin="round" x1="378.394" y1="325.896" x2="395.034" y2="331.952"/>
<line fill="none" stroke="#4D4D4D" stroke-width="3" stroke-linecap="round" stroke-linejoin="round" x1="381.458" y1="317.479" x2="398.098" y2="323.535"/>
<rect x="390.451" y="359.004" transform="matrix(0.342 -0.9397 0.9397 0.342 -65.1689 642.6463)" fill="#666666" stroke="#4D4D4D" stroke-width="3" stroke-linecap="round" stroke-linejoin="round" width="71.72" height="17.709"/>
<line fill="none" stroke="#4D4D4D" stroke-width="3" stroke-linecap="round" stroke-linejoin="round" x1="407.148" y1="394.616" x2="423.789" y2="400.673"/>
<line fill="none" stroke="#4D4D4D" stroke-width="3" stroke-linecap="round" stroke-linejoin="round" x1="410.212" y1="386.2" x2="426.853" y2="392.256"/>
<line fill="none" stroke="#4D4D4D" stroke-width="3" stroke-linecap="round" stroke-linejoin="round" x1="413.275" y1="377.783" x2="429.916" y2="383.84"/>
<line fill="none" stroke="#4D4D4D" stroke-width="3" stroke-linecap="round" stroke-linejoin="round" x1="416.339" y1="369.366" x2="432.979" y2="375.422"/>
<line fill="none" stroke="#4D4D4D" stroke-width="3" stroke-linecap="round" stroke-linejoin="round" x1="419.402" y1="360.949" x2="436.043" y2="367.006"/>
<line fill="none" stroke="#4D4D4D" stroke-width="3" stroke-linecap="round" stroke-linejoin="round" x1="422.466" y1="352.532" x2="439.106" y2="358.589"/>
<line fill="none" stroke="#4D4D4D" stroke-width="3" stroke-linecap="round" stroke-linejoin="round" x1="425.529" y1="344.115" x2="442.17" y2="350.172"/>
<line fill="none" stroke="#4D4D4D" stroke-width="3" stroke-linecap="round" stroke-linejoin="round" x1="428.593" y1="335.698" x2="445.233" y2="341.755"/>
<rect x="365.952" y="342.727" transform="matrix(0.342 -0.9397 0.9397 0.342 -78.2796 616.4478)" fill="#FFFF00" stroke="#969600" stroke-width="3" stroke-linecap="round" stroke-linejoin="round" width="70.192" height="42.789"/>
<rect x="377.462" y="344.658" transform="matrix(0.342 -0.9397 0.9397 0.342 -65.3329 611.8724)" fill="#FFFF00" stroke="#969600" stroke-width="3" stroke-linecap="round" stroke-linejoin="round" width="53.59" height="15.862"/>
<rect x="113.013" y="204.212" transform="matrix(0.9205 -0.3907 0.3907 0.9205 -71.4172 75.1073)" fill="#666666" stroke="#4D4D4D" stroke-width="3" stroke-linecap="round" stroke-linejoin="round" width="71.719" height="17.707"/>
<line fill="none" stroke="#4D4D4D" stroke-width="3" stroke-linecap="round" stroke-linejoin="round" x1="117.155" y1="216.911" x2="124.073" y2="233.211"/>
<line fill="none" stroke="#4D4D4D" stroke-width="3" stroke-linecap="round" stroke-linejoin="round" x1="125.4" y1="213.411" x2="132.319" y2="229.711"/>
<line fill="none" stroke="#4D4D4D" stroke-width="3" stroke-linecap="round" stroke-linejoin="round" x1="133.646" y1="209.911" x2="140.563" y2="226.211"/>
<line fill="none" stroke="#4D4D4D" stroke-width="3" stroke-linecap="round" stroke-linejoin="round" x1="141.891" y1="206.412" x2="148.81" y2="222.711"/>
<line fill="none" stroke="#4D4D4D" stroke-width="3" stroke-linecap="round" stroke-linejoin="round" x1="150.135" y1="202.912" x2="157.054" y2="219.212"/>
<line fill="none" stroke="#4D4D4D" stroke-width="3" stroke-linecap="round" stroke-linejoin="round" x1="158.38" y1="199.412" x2="165.299" y2="215.712"/>
<line fill="none" stroke="#4D4D4D" stroke-width="3" stroke-linecap="round" stroke-linejoin="round" x1="166.625" y1="195.912" x2="173.544" y2="212.212"/>
<line fill="none" stroke="#4D4D4D" stroke-width="3" stroke-linecap="round" stroke-linejoin="round" x1="174.87" y1="192.413" x2="181.789" y2="208.712"/>
<rect x="132.754" y="250.72" transform="matrix(0.9205 -0.3907 0.3907 0.9205 -88.0198 86.518)" fill="#666666" stroke="#4D4D4D" stroke-width="3" stroke-linecap="round" stroke-linejoin="round" width="71.719" height="17.707"/>
<line fill="none" stroke="#4D4D4D" stroke-width="3" stroke-linecap="round" stroke-linejoin="round" x1="135.976" y1="263.809" x2="142.895" y2="280.109"/>
<line fill="none" stroke="#4D4D4D" stroke-width="3" stroke-linecap="round" stroke-linejoin="round" x1="144.221" y1="260.31" x2="151.14" y2="276.609"/>
<line fill="none" stroke="#4D4D4D" stroke-width="3" stroke-linecap="round" stroke-linejoin="round" x1="152.466" y1="256.81" x2="159.385" y2="273.109"/>
<line fill="none" stroke="#4D4D4D" stroke-width="3" stroke-linecap="round" stroke-linejoin="round" x1="160.711" y1="253.31" x2="167.63" y2="269.609"/>
<line fill="none" stroke="#4D4D4D" stroke-width="3" stroke-linecap="round" stroke-linejoin="round" x1="168.956" y1="249.81" x2="175.875" y2="266.109"/>
<line fill="none" stroke="#4D4D4D" stroke-width="3" stroke-linecap="round" stroke-linejoin="round" x1="177.201" y1="246.31" x2="184.12" y2="262.61"/>
<line fill="none" stroke="#4D4D4D" stroke-width="3" stroke-linecap="round" stroke-linejoin="round" x1="185.446" y1="242.811" x2="192.365" y2="259.11"/>
<line fill="none" stroke="#4D4D4D" stroke-width="3" stroke-linecap="round" stroke-linejoin="round" x1="193.69" y1="239.311" x2="200.609" y2="255.61"/>
<rect x="119.022" y="217.155" transform="matrix(0.9205 -0.3907 0.3907 0.9205 -80.9562 79.1809)" fill="#0071BC" stroke="#003D66" stroke-width="3" stroke-linecap="round" stroke-linejoin="round" width="70.193" height="42.788"/>
<rect x="137.946" y="225.101" transform="matrix(0.9205 -0.3907 0.3907 0.9205 -77.9568 82.8947)" fill="#0071BC" stroke="#003D66" stroke-width="3" stroke-linecap="round" stroke-linejoin="round" width="53.59" height="15.861"/>
</svg>
