<?xml version="1.0" encoding="utf-8"?>
<!-- Generator: Adobe Illustrator 14.0.0, SVG Export Plug-In  -->
<!DOCTYPE svg PUBLIC "-//W3C//DTD SVG 1.1//EN" "http://www.w3.org/Graphics/SVG/1.1/DTD/svg11.dtd" [
	<!ENTITY ns_flows "http://ns.adobe.com/Flows/1.0/">
]>
<svg version="1.1"
	 xmlns="http://www.w3.org/2000/svg" xmlns:xlink="http://www.w3.org/1999/xlink" xmlns:a="http://ns.adobe.com/AdobeSVGViewerExtensions/3.0/"
	 x="0px" y="0px" width="800px" height="600px" viewBox="0 1 800 600" enable-background="new 0 1 800 600" xml:space="preserve">
<defs>
</defs>
<g>
	<rect x="4" y="5" fill="#39B54A" width="792" height="592"/>
	<path fill="#FFFFFF" d="M792,9v584H8V9H792 M800,1H0v600h800V1L800,1z"/>
</g>
<g>
	<rect x="220.667" y="5" fill="#39B54A" width="92" height="392"/>
	<path fill="#FFFFFF" d="M308.667,9v384h-84V9H308.667 M316.667,1h-100v400h100V1L316.667,1z"/>
</g>
<g>
	<rect x="487.333" y="205" fill="#39B54A" width="92" height="392"/>
	<path fill="#FFFFFF" d="M575.333,209v384h-84V209H575.333 M583.333,201h-100v400h100V201L583.333,201z"/>
</g>
<g>
	<path fill="#FFFFFF" d="M216.228,401.292v190.071H8.637V401.292H216.228 M224.865,392.655H0V600h224.865V392.655L224.865,392.655z"
		/>
</g>
<g>
	<path fill="#FFFFFF" d="M791.318,8.682v192.119H583.817V8.682H791.318 M800,0H575.136v209.482H800V0L800,0z"/>
</g>
<line fill="none" stroke="#FFFFFF" stroke-width="6" stroke-linecap="round" stroke-linejoin="round" x1="497.969" y1="595.967" x2="579.548" y2="514.388"/>
<line fill="none" stroke="#FFFFFF" stroke-width="6" stroke-linecap="round" stroke-linejoin="round" x1="486.936" y1="542.606" x2="579.548" y2="449.994"/>
<line fill="none" stroke="#FFFFFF" stroke-width="6" stroke-linecap="round" stroke-linejoin="round" x1="486.936" y1="478.213" x2="579.548" y2="385.601"/>
<line fill="none" stroke="#FFFFFF" stroke-width="6" stroke-linecap="round" stroke-linejoin="round" x1="486.936" y1="413.819" x2="579.548" y2="321.207"/>
<line fill="none" stroke="#FFFFFF" stroke-width="6" stroke-linecap="round" stroke-linejoin="round" x1="486.936" y1="349.426" x2="579.548" y2="256.813"/>
<line fill="none" stroke="#FFFFFF" stroke-width="6" stroke-linecap="round" stroke-linejoin="round" x1="486.936" y1="285.032" x2="566.52" y2="205.448"/>
<line fill="none" stroke="#FFFFFF" stroke-width="6" stroke-linecap="round" stroke-linejoin="round" x1="239.021" y1="395.159" x2="312.973" y2="321.207"/>
<line fill="none" stroke="#FFFFFF" stroke-width="6" stroke-linecap="round" stroke-linejoin="round" x1="220.36" y1="349.426" x2="312.973" y2="256.813"/>
<line fill="none" stroke="#FFFFFF" stroke-width="6" stroke-linecap="round" stroke-linejoin="round" x1="220.36" y1="285.032" x2="312.973" y2="192.42"/>
<line fill="none" stroke="#FFFFFF" stroke-width="6" stroke-linecap="round" stroke-linejoin="round" x1="220.36" y1="220.639" x2="312.973" y2="128.026"/>
<line fill="none" stroke="#FFFFFF" stroke-width="6" stroke-linecap="round" stroke-linejoin="round" x1="220.36" y1="156.245" x2="312.973" y2="63.633"/>
<line fill="none" stroke="#FFFFFF" stroke-width="6" stroke-linecap="round" stroke-linejoin="round" x1="220.36" y1="91.852" x2="304.78" y2="7.432"/>
<rect x="414.164" y="72.183" transform="matrix(0.866 0.5 -0.5 0.866 100.8098 -214.1546)" fill="#666666" stroke="#4D4D4D" stroke-width="3" stroke-linecap="round" stroke-linejoin="round" width="71.719" height="17.708"/>
<line fill="none" stroke="#4D4D4D" stroke-width="3" stroke-linecap="round" stroke-linejoin="round" x1="427.864" y1="58.021" x2="419.011" y2="73.355"/>
<line fill="none" stroke="#4D4D4D" stroke-width="3" stroke-linecap="round" stroke-linejoin="round" x1="435.622" y1="62.499" x2="426.768" y2="77.834"/>
<line fill="none" stroke="#4D4D4D" stroke-width="3" stroke-linecap="round" stroke-linejoin="round" x1="443.379" y1="66.978" x2="434.525" y2="82.312"/>
<line fill="none" stroke="#4D4D4D" stroke-width="3" stroke-linecap="round" stroke-linejoin="round" x1="451.136" y1="71.456" x2="442.282" y2="86.791"/>
<line fill="none" stroke="#4D4D4D" stroke-width="3" stroke-linecap="round" stroke-linejoin="round" x1="458.893" y1="75.935" x2="450.039" y2="91.27"/>
<line fill="none" stroke="#4D4D4D" stroke-width="3" stroke-linecap="round" stroke-linejoin="round" x1="466.649" y1="80.413" x2="457.796" y2="95.748"/>
<line fill="none" stroke="#4D4D4D" stroke-width="3" stroke-linecap="round" stroke-linejoin="round" x1="474.407" y1="84.892" x2="465.553" y2="100.227"/>
<line fill="none" stroke="#4D4D4D" stroke-width="3" stroke-linecap="round" stroke-linejoin="round" x1="482.164" y1="89.37" x2="473.311" y2="104.705"/>
<rect x="388.902" y="115.938" transform="matrix(0.866 0.5 -0.5 0.866 119.303 -195.6616)" fill="#666666" stroke="#4D4D4D" stroke-width="3" stroke-linecap="round" stroke-linejoin="round" width="71.719" height="17.708"/>
<line fill="none" stroke="#4D4D4D" stroke-width="3" stroke-linecap="round" stroke-linejoin="round" x1="401.736" y1="101.274" x2="392.883" y2="116.61"/>
<line fill="none" stroke="#4D4D4D" stroke-width="3" stroke-linecap="round" stroke-linejoin="round" x1="409.494" y1="105.753" x2="400.64" y2="121.089"/>
<line fill="none" stroke="#4D4D4D" stroke-width="3" stroke-linecap="round" stroke-linejoin="round" x1="417.251" y1="110.231" x2="408.397" y2="125.567"/>
<line fill="none" stroke="#4D4D4D" stroke-width="3" stroke-linecap="round" stroke-linejoin="round" x1="425.008" y1="114.71" x2="416.154" y2="130.046"/>
<line fill="none" stroke="#4D4D4D" stroke-width="3" stroke-linecap="round" stroke-linejoin="round" x1="432.765" y1="119.188" x2="423.911" y2="134.524"/>
<line fill="none" stroke="#4D4D4D" stroke-width="3" stroke-linecap="round" stroke-linejoin="round" x1="440.521" y1="123.667" x2="431.668" y2="139.003"/>
<line fill="none" stroke="#4D4D4D" stroke-width="3" stroke-linecap="round" stroke-linejoin="round" x1="448.279" y1="128.146" x2="439.425" y2="143.481"/>
<line fill="none" stroke="#4D4D4D" stroke-width="3" stroke-linecap="round" stroke-linejoin="round" x1="456.035" y1="132.624" x2="447.182" y2="147.96"/>
<rect x="397.732" y="79.168" transform="matrix(0.866 0.5 -0.5 0.866 108.2706 -202.9427)" fill="#ED1C24" stroke="#800000" stroke-width="3" stroke-linecap="round" stroke-linejoin="round" width="70.193" height="42.788"/>
<rect x="416.833" y="97.795" transform="matrix(0.866 0.5 -0.5 0.866 112.2976 -207.6492)" fill="#ED1C24" stroke="#800000" stroke-width="3" stroke-linecap="round" stroke-linejoin="round" width="53.59" height="15.861"/>
<rect x="528.585" y="491.311" transform="matrix(-0.9397 -0.342 0.342 -0.9397 923.785 1163.2145)" fill="#666666" stroke="#4D4D4D" stroke-width="3" stroke-linecap="round" stroke-linejoin="round" width="71.72" height="17.707"/>
<line fill="none" stroke="#4D4D4D" stroke-width="3" stroke-linecap="round" stroke-linejoin="round" x1="590.264" y1="518.983" x2="596.319" y2="502.344"/>
<line fill="none" stroke="#4D4D4D" stroke-width="3" stroke-linecap="round" stroke-linejoin="round" x1="581.847" y1="515.92" x2="587.902" y2="499.28"/>
<line fill="none" stroke="#4D4D4D" stroke-width="3" stroke-linecap="round" stroke-linejoin="round" x1="573.43" y1="512.856" x2="579.486" y2="496.217"/>
<line fill="none" stroke="#4D4D4D" stroke-width="3" stroke-linecap="round" stroke-linejoin="round" x1="565.013" y1="509.793" x2="571.068" y2="493.153"/>
<line fill="none" stroke="#4D4D4D" stroke-width="3" stroke-linecap="round" stroke-linejoin="round" x1="556.596" y1="506.729" x2="562.652" y2="490.09"/>
<line fill="none" stroke="#4D4D4D" stroke-width="3" stroke-linecap="round" stroke-linejoin="round" x1="548.18" y1="503.666" x2="554.235" y2="487.026"/>
<line fill="none" stroke="#4D4D4D" stroke-width="3" stroke-linecap="round" stroke-linejoin="round" x1="539.762" y1="500.602" x2="545.818" y2="483.963"/>
<line fill="none" stroke="#4D4D4D" stroke-width="3" stroke-linecap="round" stroke-linejoin="round" x1="531.346" y1="497.539" x2="537.401" y2="480.899"/>
<rect x="545.866" y="443.833" transform="matrix(-0.9397 -0.342 0.342 -0.9397 973.5395 1077.0356)" fill="#666666" stroke="#4D4D4D" stroke-width="3" stroke-linecap="round" stroke-linejoin="round" width="71.719" height="17.708"/>
<line fill="none" stroke="#4D4D4D" stroke-width="3" stroke-linecap="round" stroke-linejoin="round" x1="608.483" y1="471.849" x2="614.54" y2="455.209"/>
<line fill="none" stroke="#4D4D4D" stroke-width="3" stroke-linecap="round" stroke-linejoin="round" x1="600.066" y1="468.785" x2="606.123" y2="452.145"/>
<line fill="none" stroke="#4D4D4D" stroke-width="3" stroke-linecap="round" stroke-linejoin="round" x1="591.649" y1="465.722" x2="597.706" y2="449.082"/>
<line fill="none" stroke="#4D4D4D" stroke-width="3" stroke-linecap="round" stroke-linejoin="round" x1="583.232" y1="462.658" x2="589.289" y2="446.018"/>
<line fill="none" stroke="#4D4D4D" stroke-width="3" stroke-linecap="round" stroke-linejoin="round" x1="574.815" y1="459.595" x2="580.872" y2="442.954"/>
<line fill="none" stroke="#4D4D4D" stroke-width="3" stroke-linecap="round" stroke-linejoin="round" x1="566.398" y1="456.531" x2="572.455" y2="439.891"/>
<line fill="none" stroke="#4D4D4D" stroke-width="3" stroke-linecap="round" stroke-linejoin="round" x1="557.982" y1="453.468" x2="564.039" y2="436.827"/>
<line fill="none" stroke="#4D4D4D" stroke-width="3" stroke-linecap="round" stroke-linejoin="round" x1="549.565" y1="450.404" x2="555.622" y2="433.764"/>
<circle fill="#FBB03B" stroke="#F7931E" stroke-width="3" stroke-linecap="round" stroke-linejoin="round" cx="574.135" cy="478.213" r="38.672"/>
<circle fill="#FBB03B" stroke="#F7931E" stroke-width="3" stroke-linecap="round" stroke-linejoin="round" cx="574.135" cy="478.213" r="28.814"/>
<rect x="524.372" y="460.566" transform="matrix(-0.9397 -0.342 0.342 -0.9397 908.8672 1097.2461)" fill="#FBB03B" stroke="#F7931E" stroke-width="3" stroke-linecap="round" stroke-linejoin="round" width="53.59" height="15.862"/>
<circle fill="#FBB03B" stroke="#F7931E" stroke-width="3" stroke-linecap="round" stroke-linejoin="round" cx="574.135" cy="478.213" r="15.737"/>
<rect x="407.883" y="383.9" transform="matrix(0.342 -0.9397 0.9397 0.342 -94.5198 650.5245)" fill="#666666" stroke="#4D4D4D" stroke-width="3" stroke-linecap="round" stroke-linejoin="round" width="18.732" height="17.709"/>
<rect x="417.425" y="358.659" transform="matrix(0.342 -0.9397 0.9397 0.342 -64.5219 642.8822)" fill="#666666" stroke="#4D4D4D" stroke-width="3" stroke-linecap="round" stroke-linejoin="round" width="18.732" height="17.709"/>
<rect x="426.967" y="333.418" transform="matrix(0.342 -0.9397 0.9397 0.342 -34.524 635.24)" fill="#666666" stroke="#4D4D4D" stroke-width="3" stroke-linecap="round" stroke-linejoin="round" width="18.732" height="17.709"/>
<rect x="360.027" y="366.422" transform="matrix(0.342 -0.9397 0.9397 0.342 -109.5851 594.0527)" fill="#666666" stroke="#4D4D4D" stroke-width="3" stroke-linecap="round" stroke-linejoin="round" width="18.732" height="17.709"/>
<rect x="369.569" y="341.18" transform="matrix(0.342 -0.9397 0.9397 0.342 -79.5872 586.4105)" fill="#666666" stroke="#4D4D4D" stroke-width="3" stroke-linecap="round" stroke-linejoin="round" width="18.732" height="17.709"/>
<rect x="379.111" y="315.939" transform="matrix(0.342 -0.9397 0.9397 0.342 -49.5893 578.7682)" fill="#666666" stroke="#4D4D4D" stroke-width="3" stroke-linecap="round" stroke-linejoin="round" width="18.732" height="17.709"/>
<rect x="361.766" y="336.749" transform="matrix(0.342 -0.9397 0.9397 0.342 -71.2318 614.5575)" fill="#FFFF00" stroke="#969600" stroke-width="3.2606" stroke-linecap="round" stroke-linejoin="round" width="82.914" height="42.789"/>
<line fill="none" stroke="#969600" stroke-width="3.2606" stroke-linecap="round" stroke-linejoin="round" x1="383.201" y1="383.649" x2="400" y2="338.647"/>
<line fill="none" stroke="#969600" stroke-width="3.2606" stroke-linecap="round" stroke-linejoin="round" x1="400.615" y1="390.476" x2="417.414" y2="345.474"/>
<circle fill="#FFFF00" stroke="#969600" stroke-width="3.2606" stroke-linecap="round" stroke-linejoin="round" cx="408.113" cy="344.474" r="15.569"/>
<rect x="114.983" y="213.895" transform="matrix(0.9205 -0.3907 0.3907 0.9205 -77.0164 66.9682)" fill="#666666" stroke="#4D4D4D" stroke-width="3" stroke-linecap="round" stroke-linejoin="round" width="22.159" height="17.707"/>
<rect x="151.812" y="197.879" transform="matrix(0.9205 -0.3907 0.3907 0.9205 -67.8303 80.0859)" fill="#666666" stroke="#4D4D4D" stroke-width="3" stroke-linecap="round" stroke-linejoin="round" width="22.159" height="17.707"/>
<rect x="136.243" y="262.34" transform="matrix(0.9205 -0.3907 0.3907 0.9205 -94.2564 79.1269)" fill="#666666" stroke="#4D4D4D" stroke-width="3" stroke-linecap="round" stroke-linejoin="round" width="22.159" height="17.707"/>
<rect x="173.072" y="246.325" transform="matrix(0.9205 -0.3907 0.3907 0.9205 -85.0703 92.2445)" fill="#666666" stroke="#4D4D4D" stroke-width="3" stroke-linecap="round" stroke-linejoin="round" width="22.159" height="17.707"/>
<line fill="none" stroke="#4D4D4D" stroke-width="3" stroke-linecap="round" stroke-linejoin="round" x1="117.155" y1="216.911" x2="124.073" y2="233.211"/>
<line fill="none" stroke="#4D4D4D" stroke-width="3" stroke-linecap="round" stroke-linejoin="round" x1="125.4" y1="213.411" x2="132.319" y2="229.711"/>
<line fill="none" stroke="#4D4D4D" stroke-width="3" stroke-linecap="round" stroke-linejoin="round" x1="133.646" y1="209.911" x2="140.563" y2="226.211"/>
<line fill="none" stroke="#4D4D4D" stroke-width="3" stroke-linecap="round" stroke-linejoin="round" x1="150.135" y1="202.912" x2="157.054" y2="219.212"/>
<line fill="none" stroke="#4D4D4D" stroke-width="3" stroke-linecap="round" stroke-linejoin="round" x1="158.38" y1="199.412" x2="165.299" y2="215.712"/>
<line fill="none" stroke="#4D4D4D" stroke-width="3" stroke-linecap="round" stroke-linejoin="round" x1="166.625" y1="195.912" x2="173.544" y2="212.212"/>
<line fill="none" stroke="#4D4D4D" stroke-width="3" stroke-linecap="round" stroke-linejoin="round" x1="135.976" y1="263.809" x2="142.895" y2="280.109"/>
<line fill="none" stroke="#4D4D4D" stroke-width="3" stroke-linecap="round" stroke-linejoin="round" x1="144.221" y1="260.31" x2="151.14" y2="276.609"/>
<line fill="none" stroke="#4D4D4D" stroke-width="3" stroke-linecap="round" stroke-linejoin="round" x1="152.466" y1="256.81" x2="159.385" y2="273.109"/>
<line fill="none" stroke="#4D4D4D" stroke-width="3" stroke-linecap="round" stroke-linejoin="round" x1="169.956" y1="249.81" x2="176.875" y2="266.109"/>
<line fill="none" stroke="#4D4D4D" stroke-width="3" stroke-linecap="round" stroke-linejoin="round" x1="178.201" y1="246.31" x2="185.12" y2="262.61"/>
<line fill="none" stroke="#4D4D4D" stroke-width="3" stroke-linecap="round" stroke-linejoin="round" x1="186.446" y1="242.811" x2="193.365" y2="259.11"/>
<rect x="119.022" y="217.155" transform="matrix(0.9205 -0.3907 0.3907 0.9205 -80.9562 79.1809)" fill="#0071BC" stroke="#003D66" stroke-width="3" stroke-linecap="round" stroke-linejoin="round" width="70.193" height="42.788"/>
<rect x="134.796" y="226.038" transform="matrix(0.3866 0.9222 -0.9222 0.3866 314.8922 -5.5133)" fill="#0071BC" stroke="#003D66" stroke-width="3" stroke-linecap="round" stroke-linejoin="round" width="53.59" height="15.861"/>
</svg>
